<svg xmlns="http://www.w3.org/2000/svg" viewBox="0 0 1927 1927" fill-rule="evenodd">
  <path fill="#d8d8d8" d="M 921.0,714.5 920.0,715.5 906.0,715.5 905.0,716.5 897.0,716.5 896.0,717.5 893.0,717.5 893.0,718.5 918.0,717.5 919.0,716.5 948.0,716.5 949.0,715.5 999.0,716.5 1000.0,717.5 1025.0,718.5 1025.0,717.5 1023.0,717.5 1022.0,716.5 998.0,715.5 997.0,714.5 922.0,714.5 Z M 884.0,718.5 883.0,719.5 876.0,719.5 875.0,720.5 868.0,720.5 867.0,721.5 855.0,722.5 851.0,724.5 848.0,724.5 847.0,725.5 844.0,725.5 843.0,726.5 840.0,726.5 839.0,727.5 829.0,729.5 826.0,731.5 826.0,732.5 828.0,732.5 831.0,730.5 837.0,729.5 841.0,727.5 844.0,727.5 845.0,726.5 848.0,726.5 853.0,724.5 857.0,724.5 858.0,723.5 864.0,723.5 865.0,722.5 877.0,721.5 878.0,720.5 884.0,720.5 885.0,719.5 892.0,719.5 892.0,718.5 885.0,718.5 Z M 1411.0,726.5 1410.0,727.5 1386.0,727.5 1385.0,728.5 1373.0,728.5 1372.0,729.5 1363.0,730.5 1363.0,731.5 1379.0,730.5 1380.0,729.5 1391.0,729.5 1392.0,728.5 1442.0,728.5 1443.0,729.5 1457.0,729.5 1458.0,730.5 1473.0,731.5 1473.0,730.5 1470.0,730.5 1469.0,729.5 1452.0,728.5 1451.0,727.5 1425.0,727.5 1424.0,726.5 1412.0,726.5 Z M 929.0,729.5 928.0,730.5 896.0,731.5 895.0,732.5 886.0,732.5 885.0,733.5 878.0,733.5 877.0,734.5 871.0,734.5 870.0,735.5 859.0,736.5 858.0,737.5 855.0,737.5 854.0,738.5 849.0,739.5 845.0,741.5 842.5,744.0 843.0,744.5 848.0,741.5 850.0,741.5 857.0,738.5 866.0,737.5 867.0,736.5 872.0,736.5 873.0,735.5 887.0,734.5 888.0,733.5 898.0,733.5 899.0,732.5 911.0,732.5 912.0,731.5 932.0,731.5 933.0,730.5 986.0,730.5 987.0,731.5 1006.0,731.5 1007.0,732.5 1030.0,733.5 1031.0,734.5 1038.0,734.5 1039.0,735.5 1045.0,735.5 1046.0,736.5 1057.0,737.5 1065.0,740.5 1068.0,740.5 1074.0,743.5 1074.5,743.0 1073.0,741.5 1069.0,739.5 1067.0,739.5 1063.0,737.5 1060.0,737.5 1059.0,736.5 1054.0,736.5 1053.0,735.5 1048.0,735.5 1047.0,734.5 1041.0,734.5 1040.0,733.5 1033.0,733.5 1032.0,732.5 1023.0,732.5 1022.0,731.5 991.0,730.5 990.0,729.5 930.0,729.5 Z M 326.0,731.5 326.0,1027.5 436.5,1027.0 436.5,896.0 438.5,895.0 437.0,892.5 435.5,895.0 435.5,1026.0 326.5,1026.0 327.0,731.5 Z M 748.0,731.5 747.5,1026.0 638.5,1026.0 638.0,892.5 634.5,896.0 635.0,897.5 637.0,895.5 637.5,896.0 637.5,1027.0 748.5,1027.0 748.5,732.0 Z M 824.0,732.5 820.0,734.5 814.5,740.0 814.5,742.0 813.5,743.0 813.5,988.0 814.5,989.0 814.5,993.0 816.0,994.5 815.5,742.0 816.5,740.0 821.0,735.5 824.0,734.5 825.5,733.0 825.0,732.5 Z M 1093.0,732.5 1092.5,733.0 1094.0,734.5 1097.0,735.5 1102.5,741.0 1102.5,786.0 1105.0,788.5 1147.0,788.5 1148.0,789.5 1153.0,789.5 1154.0,790.5 1157.0,790.5 1158.0,791.5 1163.0,792.5 1165.0,794.5 1169.0,795.5 1171.0,797.5 1176.0,799.5 1182.0,804.5 1183.5,804.0 1179.0,799.5 1174.0,797.5 1172.0,795.5 1164.0,791.5 1162.0,791.5 1158.0,789.5 1155.0,789.5 1151.0,787.5 1146.0,787.5 1145.0,786.5 1105.0,786.5 1104.5,742.0 1100.0,735.5 1094.0,732.5 Z M 842.0,744.5 841.5,747.0 845.0,750.5 849.0,752.5 851.0,752.5 858.0,755.5 862.0,755.5 863.0,756.5 875.0,757.5 876.0,758.5 884.0,758.5 885.0,759.5 893.0,759.5 894.0,760.5 903.0,760.5 904.0,761.5 918.0,761.5 919.0,762.5 952.0,762.5 953.0,763.5 955.0,763.5 956.0,762.5 999.0,762.5 1000.0,761.5 1013.0,761.5 1014.0,760.5 1024.0,760.5 1025.0,759.5 1033.0,759.5 1034.0,758.5 1049.0,757.5 1050.0,756.5 1060.0,755.5 1061.0,754.5 1069.0,752.5 1075.0,749.5 1076.5,748.0 1076.5,745.0 1075.5,745.0 1075.5,747.0 1074.0,748.5 1072.0,748.5 1067.0,751.5 1057.0,753.5 1056.0,754.5 1051.0,754.5 1050.0,755.5 1036.0,756.5 1035.0,757.5 1028.0,757.5 1027.0,758.5 1016.0,758.5 1015.0,759.5 1001.0,759.5 1000.0,760.5 971.0,760.5 970.0,761.5 918.0,760.5 917.0,759.5 903.0,759.5 902.0,758.5 882.0,757.5 881.0,756.5 868.0,755.5 867.0,754.5 862.0,754.5 861.0,753.5 854.0,752.5 845.0,748.5 842.5,745.0 Z M 1714.0,753.5 1713.5,754.0 1723.5,765.0 1727.5,773.0 1727.5,775.0 1729.5,779.0 1729.5,782.0 1730.5,783.0 1730.5,798.0 1729.5,799.0 1728.5,806.0 1723.5,816.0 1712.5,828.0 1713.0,828.5 1714.0,828.5 1722.5,820.0 1726.5,812.0 1728.5,810.0 1728.5,808.0 1730.5,804.0 1730.5,801.0 1731.5,800.0 1731.5,791.0 1732.5,790.0 1731.5,789.0 1731.5,781.0 1730.5,780.0 1729.5,774.0 1724.5,764.0 1715.0,753.5 Z M 1669.0,756.5 1665.0,758.5 1660.0,763.5 1659.0,763.5 1655.5,767.0 1650.5,775.0 1650.5,777.0 1648.5,781.0 1647.5,793.0 1648.5,794.0 1649.5,804.0 1652.0,807.5 1652.5,806.0 1651.5,805.0 1651.5,802.0 1649.5,797.0 1649.5,784.0 1650.5,783.0 1650.5,780.0 1651.5,779.0 1652.5,774.0 1660.0,764.5 1697.5,765.0 1694.0,763.5 1690.0,763.5 1689.0,762.5 1664.0,762.5 1663.5,762.0 1666.0,759.5 1671.0,757.5 1671.5,757.0 1670.0,756.5 Z M 1701.0,790.5 1699.5,792.0 1705.5,799.0 1705.5,803.0 1706.5,804.0 1706.5,812.0 1707.5,813.0 1707.0,814.5 1691.0,814.5 1690.5,805.0 1689.5,804.0 1689.5,802.0 1688.5,802.0 1688.5,811.0 1689.5,812.0 1690.0,815.5 1707.5,816.0 1701.0,821.5 1698.0,822.5 1696.5,824.0 1697.0,824.5 1702.0,822.5 1706.0,819.5 1713.5,811.0 1713.0,809.5 1709.0,813.5 1708.5,813.0 1706.5,798.0 1701.5,792.0 1702.5,791.0 1702.0,790.5 Z M 1184.0,804.5 1183.5,805.0 1192.5,814.0 1198.5,822.0 1205.5,835.0 1205.5,837.0 1207.5,841.0 1207.5,844.0 1208.5,845.0 1209.5,856.0 1210.5,857.0 1210.5,870.0 1209.5,871.0 1209.5,877.0 1208.5,878.0 1208.5,881.0 1207.5,882.0 1207.5,885.0 1206.5,886.0 1205.5,891.0 1201.5,899.0 1193.5,911.0 1178.0,925.5 1173.0,927.5 1171.0,929.5 1165.0,932.5 1163.0,932.5 1156.0,935.5 1149.0,936.5 1148.0,937.5 1140.0,937.5 1139.0,938.5 1104.0,938.5 1102.5,940.0 1102.5,991.0 1098.5,1000.0 1095.5,1004.0 1091.0,1008.5 1080.0,1016.5 1056.0,1027.5 1054.0,1027.5 1050.0,1029.5 1047.0,1029.5 1046.0,1030.5 1043.0,1030.5 1039.0,1032.5 1028.0,1034.5 1027.0,1035.5 1022.0,1035.5 1021.0,1036.5 1016.0,1036.5 1015.0,1037.5 1009.0,1037.5 1008.0,1038.5 1001.0,1038.5 1000.0,1039.5 991.0,1039.5 990.0,1040.5 985.0,1040.5 984.0,1041.5 953.0,1042.5 952.0,1041.5 935.0,1041.5 934.0,1040.5 928.0,1040.5 927.0,1039.5 919.0,1039.5 918.0,1038.5 903.0,1037.5 902.0,1036.5 891.0,1035.5 890.0,1034.5 879.0,1032.5 875.0,1030.5 868.0,1029.5 867.0,1028.5 862.0,1027.5 859.0,1025.5 857.0,1025.5 854.0,1023.5 852.0,1023.5 836.0,1015.5 827.0,1007.5 824.5,1007.0 824.5,1008.0 833.0,1015.5 848.0,1023.5 850.0,1023.5 860.0,1028.5 866.0,1029.5 869.0,1031.5 872.0,1031.5 876.0,1033.5 879.0,1033.5 880.0,1034.5 883.0,1034.5 888.0,1036.5 892.0,1036.5 893.0,1037.5 897.0,1037.5 898.0,1038.5 903.0,1038.5 904.0,1039.5 910.0,1039.5 911.0,1040.5 919.0,1040.5 920.0,1041.5 927.5,1042.0 898.5,1043.0 899.0,1241.5 973.5,1241.0 973.5,1139.0 974.0,1138.5 975.0,1140.5 976.5,1140.0 976.5,1139.0 973.0,1135.5 972.5,1136.0 972.5,1239.0 971.0,1240.5 901.0,1240.5 899.5,1239.0 899.5,1045.0 901.0,1043.5 983.0,1043.5 986.0,1046.5 986.5,1045.0 984.5,1043.0 985.0,1042.5 988.0,1042.5 989.0,1041.5 999.0,1041.5 1000.0,1040.5 1008.0,1040.5 1009.0,1039.5 1020.0,1038.5 1021.0,1037.5 1025.0,1037.5 1026.0,1036.5 1030.0,1036.5 1031.0,1035.5 1046.0,1032.5 1047.0,1031.5 1058.0,1028.5 1078.0,1019.5 1091.0,1010.5 1100.5,1000.0 1100.5,998.0 1104.5,990.0 1104.5,941.0 1139.0,940.5 1140.0,939.5 1147.0,939.5 1151.0,937.5 1159.0,936.5 1160.0,935.5 1165.0,934.5 1171.0,930.5 1176.0,928.5 1183.0,923.5 1195.5,911.0 1200.5,904.0 1202.5,899.0 1206.5,893.0 1206.5,891.0 1210.5,881.0 1211.5,870.0 1212.5,869.0 1212.5,857.0 1211.5,856.0 1210.5,845.0 1209.5,844.0 1206.5,833.0 1202.5,827.0 1199.5,820.0 1185.0,804.5 Z M 1406.0,811.5 1405.0,812.5 1390.0,813.5 1389.0,814.5 1387.0,814.5 1387.0,815.5 1391.0,815.5 1392.0,814.5 1400.0,814.5 1401.0,813.5 1433.0,813.5 1434.0,814.5 1448.0,815.5 1448.0,814.5 1445.0,814.5 1444.0,813.5 1440.0,813.5 1439.0,812.5 1430.0,812.5 1429.0,811.5 1407.0,811.5 Z M 1104.0,819.5 1102.5,821.0 1102.5,905.0 1104.0,906.5 1142.0,906.5 1143.0,905.5 1146.0,905.5 1152.0,902.5 1154.0,902.5 1161.5,897.0 1160.0,896.5 1158.0,898.5 1145.0,904.5 1104.5,904.0 1104.5,822.0 1148.5,822.0 1145.0,820.5 1141.0,820.5 1140.0,819.5 1105.0,819.5 Z M 1163.0,830.5 1162.5,831.0 1165.5,835.0 1170.5,840.0 1176.5,854.0 1176.5,872.0 1175.5,873.0 1175.5,876.0 1170.5,886.0 1161.5,896.0 1162.0,896.5 1163.0,896.5 1172.5,886.0 1178.5,871.0 1178.5,856.0 1177.5,855.0 1176.5,849.0 1174.5,846.0 1174.5,844.0 1172.5,840.0 1164.0,830.5 Z M 1419.0,852.5 1416.5,855.0 1416.5,917.0 1419.0,918.5 1485.0,918.5 1485.5,919.0 1482.5,923.0 1483.0,924.5 1487.5,919.0 1487.0,917.5 1420.0,917.5 1418.5,916.0 1419.0,854.5 1605.0,854.5 1606.0,857.5 1606.5,854.0 1605.0,852.5 1420.0,852.5 Z M 1607.0,859.5 1607.5,896.0 1606.5,897.0 1606.5,903.0 1607.5,903.0 1607.5,900.0 1608.5,899.0 1608.5,887.0 1609.5,886.0 1609.5,875.0 1608.5,874.0 1608.5,864.0 1607.5,863.0 1607.5,860.0 Z M 1316.0,1014.5 1315.5,1015.0 1318.0,1016.5 1320.0,1016.5 1323.0,1018.5 1325.0,1018.5 1329.0,1020.5 1332.0,1020.5 1336.0,1022.5 1343.0,1023.5 1347.0,1025.5 1351.0,1025.5 1352.0,1026.5 1356.0,1026.5 1357.0,1027.5 1363.0,1027.5 1364.0,1028.5 1369.0,1028.5 1369.0,1027.5 1365.0,1027.5 1364.0,1026.5 1360.0,1026.5 1359.0,1025.5 1345.0,1023.5 1344.0,1022.5 1337.0,1021.5 1336.0,1020.5 1334.0,1020.5 1333.0,1019.5 1317.0,1014.5 Z M 1379.0,1029.5 1379.0,1030.5 1404.0,1031.5 1405.0,1032.5 1430.0,1032.5 1431.0,1031.5 1447.0,1031.5 1448.0,1030.5 1457.0,1030.5 1457.0,1029.5 1443.0,1029.5 1442.0,1030.5 1394.0,1030.5 1393.0,1029.5 1380.0,1029.5 Z M 329.0,1042.5 327.5,1044.0 328.0,1241.5 402.0,1241.5 403.0,1196.5 450.0,1196.5 451.0,1195.5 471.0,1195.5 472.0,1194.5 477.0,1194.5 478.0,1193.5 487.0,1192.5 493.0,1189.5 501.0,1187.5 506.5,1184.0 505.0,1183.5 502.0,1185.5 492.0,1188.5 489.0,1190.5 481.0,1191.5 480.0,1192.5 475.0,1192.5 474.0,1193.5 469.0,1193.5 468.0,1194.5 450.0,1194.5 449.0,1195.5 402.0,1195.5 401.5,1239.0 400.0,1240.5 330.0,1240.5 328.5,1239.0 328.5,1045.0 330.0,1043.5 459.0,1043.5 460.0,1044.5 469.0,1044.5 470.0,1045.5 480.0,1046.5 481.0,1047.5 484.0,1047.5 485.0,1048.5 488.0,1048.5 493.0,1050.5 495.5,1050.0 490.0,1047.5 486.0,1047.5 481.0,1045.5 471.0,1044.5 470.0,1043.5 461.0,1043.5 460.0,1042.5 330.0,1042.5 Z M 560.0,1042.5 558.5,1044.0 559.0,1241.5 633.0,1241.5 633.5,1197.0 678.5,1196.0 633.0,1195.5 632.5,1239.0 631.0,1240.5 561.0,1240.5 559.5,1239.0 559.5,1045.0 561.0,1043.5 700.0,1043.5 701.0,1044.5 711.0,1044.5 712.0,1045.5 717.0,1045.5 718.0,1046.5 722.0,1046.5 723.0,1047.5 726.0,1047.5 727.0,1048.5 730.0,1048.5 735.0,1050.5 737.5,1050.0 732.0,1047.5 728.0,1047.5 723.0,1045.5 713.0,1044.5 712.0,1043.5 703.0,1043.5 702.0,1042.5 561.0,1042.5 Z M 803.0,1042.5 801.5,1044.0 801.5,1240.0 803.0,1241.5 876.5,1241.0 876.5,1043.0 804.0,1042.5 Z M 1068.0,1042.5 1066.5,1045.0 1066.5,1144.0 1066.0,1144.5 1063.0,1141.5 1062.5,1142.0 1064.5,1146.0 1067.0,1148.5 1068.5,1148.0 1068.5,1044.0 1140.5,1044.0 1140.5,1240.0 1058.0,1240.5 1056.0,1239.5 1055.5,1240.0 1057.0,1241.5 1141.5,1241.0 1141.5,1043.0 1069.0,1042.5 Z M 1153.0,1042.5 1151.5,1044.0 1152.0,1106.5 1224.5,1107.0 1225.0,1241.5 1299.5,1241.0 1299.5,1107.0 1372.0,1106.5 1372.5,1043.0 1154.0,1042.5 Z M 1385.0,1042.5 1383.5,1044.0 1383.5,1105.0 1385.0,1106.5 1487.0,1106.5 1487.5,1107.0 1486.0,1108.5 1480.0,1111.5 1476.5,1115.0 1477.0,1115.5 1487.0,1109.5 1490.5,1106.0 1490.0,1105.5 1387.0,1105.5 1385.5,1104.0 1386.0,1043.5 1603.0,1043.5 1603.5,1105.0 1600.5,1108.0 1602.0,1108.5 1604.5,1106.0 1604.5,1104.0 1605.5,1103.0 1604.5,1101.0 1604.5,1097.0 1605.5,1096.0 1604.5,1094.0 1604.5,1089.0 1605.5,1088.0 1605.5,1086.0 1604.5,1085.0 1604.5,1081.0 1605.5,1080.0 1605.5,1078.0 1604.5,1077.0 1604.5,1072.0 1605.5,1071.0 1604.5,1070.0 1604.5,1064.0 1605.5,1063.0 1604.5,1062.0 1604.5,1057.0 1605.5,1056.0 1604.5,1054.0 1604.5,1050.0 1605.5,1049.0 1605.5,1045.0 1604.0,1042.5 1386.0,1042.5 Z M 804.0,1043.5 804.0,1240.5 874.0,1240.5 875.5,1239.0 875.5,1045.0 874.0,1043.5 805.0,1043.5 Z M 1154.0,1043.5 1152.5,1045.0 1152.5,1104.0 1154.0,1105.5 1226.5,1106.0 1227.0,1240.5 1297.0,1240.5 1298.5,1239.0 1298.5,1106.0 1370.0,1105.5 1371.5,1104.0 1371.5,1045.0 1370.0,1043.5 1155.0,1043.5 Z M 538.0,1090.5 537.5,1092.0 538.5,1093.0 539.5,1101.0 540.5,1102.0 540.5,1108.0 541.5,1109.0 541.5,1130.0 540.5,1131.0 540.5,1137.0 539.5,1138.0 539.5,1142.0 538.5,1143.0 537.5,1149.0 538.0,1149.5 539.5,1147.0 540.5,1141.0 541.5,1140.0 541.5,1136.0 542.5,1135.0 542.5,1104.0 541.5,1103.0 540.5,1095.0 538.5,1091.0 Z M 402.0,1105.5 402.0,1133.5 458.0,1133.5 463.0,1131.5 464.5,1130.0 463.0,1129.5 455.0,1132.5 403.0,1132.5 403.0,1106.5 454.0,1106.5 455.0,1107.5 462.5,1108.0 458.0,1105.5 403.0,1105.5 Z M 633.0,1105.5 633.0,1133.5 700.0,1133.5 707.0,1130.5 710.5,1126.0 710.0,1122.5 706.0,1129.5 702.0,1131.5 698.0,1131.5 697.0,1132.5 634.0,1132.5 634.0,1106.5 697.0,1106.5 698.0,1107.5 702.0,1107.5 703.0,1108.5 704.5,1108.0 700.0,1105.5 634.0,1105.5 Z M 1511.0,1168.5 1502.0,1174.5 1498.5,1178.0 1499.0,1178.5 1602.0,1178.5 1603.5,1180.0 1603.0,1240.5 1386.0,1240.5 1385.5,1179.0 1387.5,1177.0 1386.0,1176.5 1383.5,1179.0 1384.0,1241.5 1604.0,1241.5 1605.5,1239.0 1605.5,1236.0 1604.5,1235.0 1605.5,1233.0 1605.5,1231.0 1604.5,1230.0 1604.5,1225.0 1605.5,1224.0 1604.5,1222.0 1604.5,1217.0 1605.5,1216.0 1604.5,1214.0 1604.5,1209.0 1605.5,1208.0 1604.5,1207.0 1604.5,1201.0 1605.5,1200.0 1604.5,1198.0 1604.5,1194.0 1605.5,1193.0 1605.5,1191.0 1604.5,1190.0 1604.5,1185.0 1605.5,1183.0 1604.5,1181.0 1605.5,1180.0 1604.0,1177.5 1502.0,1177.5 1501.5,1177.0 1503.0,1175.5 1510.0,1171.5 1512.5,1169.0 1512.0,1168.5 Z M 705.0,1235.5 704.5,1237.0 708.0,1241.5 784.0,1241.5 784.5,1239.0 784.0,1238.5 783.0,1240.5 709.0,1240.5 705.5,1236.0 Z"/>
  <path fill="#1a1a1a" d="M 949.0,715.5 948.0,716.5 919.0,716.5 918.0,717.5 904.0,717.5 903.0,718.5 893.0,718.5 892.0,719.5 885.0,719.5 884.0,720.5 871.0,721.5 870.0,722.5 865.0,722.5 864.0,723.5 858.0,723.5 857.0,724.5 853.0,724.5 852.0,725.5 841.0,727.5 840.0,728.5 834.0,729.5 828.0,732.5 826.0,732.5 824.0,734.5 821.0,735.5 815.5,742.0 815.5,990.0 819.5,1000.0 824.5,1005.0 824.5,1006.0 832.0,1012.5 836.0,1015.5 862.0,1027.5 864.0,1027.5 868.0,1029.5 871.0,1029.5 872.0,1030.5 875.0,1030.5 879.0,1032.5 890.0,1034.5 891.0,1035.5 896.0,1035.5 897.0,1036.5 902.0,1036.5 903.0,1037.5 918.0,1038.5 919.0,1039.5 927.0,1039.5 928.0,1040.5 934.0,1040.5 935.0,1041.5 952.0,1041.5 953.0,1042.5 984.0,1041.5 985.0,1040.5 990.0,1040.5 991.0,1039.5 1000.0,1039.5 1001.0,1038.5 1008.0,1038.5 1009.0,1037.5 1015.0,1037.5 1016.0,1036.5 1027.0,1035.5 1028.0,1034.5 1031.0,1034.5 1032.0,1033.5 1035.0,1033.5 1036.0,1032.5 1039.0,1032.5 1043.0,1030.5 1046.0,1030.5 1047.0,1029.5 1050.0,1029.5 1051.0,1028.5 1056.0,1027.5 1059.0,1025.5 1066.0,1023.5 1080.0,1016.5 1086.0,1012.5 1095.5,1004.0 1098.5,1000.0 1102.5,991.0 1102.5,940.0 1104.0,938.5 1139.0,938.5 1140.0,937.5 1148.0,937.5 1149.0,936.5 1152.0,936.5 1153.0,935.5 1156.0,935.5 1157.0,934.5 1165.0,932.5 1171.0,929.5 1173.0,927.5 1178.0,925.5 1193.5,911.0 1198.5,904.0 1205.5,891.0 1205.5,889.0 1207.5,885.0 1207.5,882.0 1208.5,881.0 1208.5,878.0 1209.5,877.0 1209.5,871.0 1210.5,870.0 1210.5,857.0 1209.5,856.0 1209.5,850.0 1208.5,849.0 1207.5,841.0 1201.5,827.0 1192.5,814.0 1183.0,804.5 1179.0,802.5 1176.0,799.5 1171.0,797.5 1167.0,794.5 1165.0,794.5 1163.0,792.5 1161.0,792.5 1157.0,790.5 1154.0,790.5 1153.0,789.5 1148.0,789.5 1147.0,788.5 1105.0,788.5 1102.5,786.0 1102.5,741.0 1097.0,735.5 1094.0,734.5 1092.0,732.5 1084.0,729.5 1081.0,729.5 1074.0,726.5 1071.0,726.5 1070.0,725.5 1066.0,725.5 1065.0,724.5 1061.0,724.5 1060.0,723.5 1054.0,723.5 1053.0,722.5 1048.0,722.5 1047.0,721.5 1041.0,721.5 1040.0,720.5 1034.0,720.5 1033.0,719.5 1026.0,719.5 1025.0,718.5 1000.0,717.5 999.0,716.5 950.0,715.5 Z M 1392.0,728.5 1391.0,729.5 1380.0,729.5 1379.0,730.5 1370.0,730.5 1369.0,731.5 1356.0,732.5 1355.0,733.5 1352.0,733.5 1344.0,736.5 1335.0,737.5 1334.0,738.5 1329.0,739.5 1326.0,741.5 1315.0,744.5 1304.0,750.5 1300.0,751.5 1298.0,753.5 1295.0,754.5 1293.0,756.5 1284.0,761.5 1275.0,769.5 1274.0,769.5 1258.5,785.0 1244.5,806.0 1241.5,812.0 1240.5,817.0 1235.5,827.0 1235.5,830.0 1233.5,835.0 1233.5,839.0 1232.5,840.0 1232.5,844.0 1231.5,845.0 1230.5,853.0 1229.5,854.0 1229.5,862.0 1228.5,863.0 1228.5,896.0 1229.5,897.0 1229.5,905.0 1230.5,906.0 1230.5,910.0 1232.5,915.0 1232.5,919.0 1233.5,920.0 1233.5,924.0 1234.5,925.0 1235.5,932.0 1240.5,942.0 1240.5,944.0 1243.5,951.0 1245.5,953.0 1248.5,960.0 1259.5,975.0 1279.0,993.5 1287.0,998.5 1290.0,1001.5 1307.0,1010.5 1309.0,1010.5 1316.0,1014.5 1318.0,1014.5 1337.0,1021.5 1340.0,1021.5 1345.0,1023.5 1349.0,1023.5 1350.0,1024.5 1354.0,1024.5 1355.0,1025.5 1359.0,1025.5 1360.0,1026.5 1364.0,1026.5 1365.0,1027.5 1369.0,1027.5 1370.0,1028.5 1378.0,1028.5 1379.0,1029.5 1393.0,1029.5 1394.0,1030.5 1442.0,1030.5 1443.0,1029.5 1457.0,1029.5 1458.0,1028.5 1466.0,1028.5 1467.0,1027.5 1477.0,1026.5 1478.0,1025.5 1487.0,1024.5 1492.0,1022.5 1496.0,1022.5 1500.0,1020.5 1506.0,1019.5 1509.0,1017.5 1512.0,1017.5 1513.0,1016.5 1518.0,1015.5 1527.0,1010.5 1529.0,1010.5 1546.0,1001.5 1549.0,998.5 1557.0,993.5 1577.5,974.0 1583.5,966.0 1587.5,960.0 1589.5,955.0 1591.5,953.0 1596.5,942.0 1596.5,940.0 1599.5,935.0 1601.5,925.0 1602.5,924.0 1602.5,920.0 1603.5,919.0 1603.5,916.0 1605.5,911.0 1605.5,907.0 1606.5,906.0 1606.5,897.0 1607.5,896.0 1607.5,867.0 1606.5,866.0 1606.5,858.0 1605.0,854.5 1419.0,854.5 1418.5,916.0 1420.0,917.5 1487.0,917.5 1487.5,919.0 1477.0,930.5 1470.0,935.5 1460.0,940.5 1458.0,940.5 1454.0,942.5 1451.0,942.5 1450.0,943.5 1447.0,943.5 1446.0,944.5 1436.0,945.5 1435.0,946.5 1429.0,946.5 1428.0,947.5 1407.0,947.5 1406.0,946.5 1398.0,946.5 1397.0,945.5 1388.0,944.5 1387.0,943.5 1384.0,943.5 1383.0,942.5 1380.0,942.5 1379.0,941.5 1374.0,940.5 1368.0,936.5 1363.0,934.5 1349.5,922.0 1348.5,919.0 1343.5,912.0 1343.5,910.0 1340.5,903.0 1339.5,896.0 1338.5,895.0 1338.5,890.0 1337.5,889.0 1337.5,870.0 1338.5,869.0 1338.5,863.0 1340.5,859.0 1342.5,849.0 1349.5,837.0 1361.0,825.5 1366.0,823.5 1368.0,821.5 1374.0,818.5 1380.0,817.5 1390.0,813.5 1395.0,813.5 1396.0,812.5 1405.0,812.5 1406.0,811.5 1429.0,811.5 1430.0,812.5 1439.0,812.5 1440.0,813.5 1444.0,813.5 1445.0,814.5 1448.0,814.5 1449.0,815.5 1460.0,818.5 1473.0,825.5 1477.0,829.5 1478.0,829.5 1485.0,837.5 1601.5,837.0 1600.5,830.0 1599.5,829.0 1598.5,824.0 1595.5,819.0 1594.5,814.0 1591.5,808.0 1589.5,806.0 1586.5,799.0 1580.5,790.0 1575.5,785.0 1575.5,784.0 1555.0,764.5 1543.0,756.5 1538.0,754.5 1536.0,752.5 1530.0,749.5 1528.0,749.5 1522.0,745.5 1520.0,745.5 1517.0,743.5 1511.0,742.5 1503.0,738.5 1500.0,738.5 1495.0,736.5 1491.0,736.5 1490.0,735.5 1487.0,735.5 1486.0,734.5 1483.0,734.5 1482.0,733.5 1479.0,733.5 1474.0,731.5 1458.0,730.5 1457.0,729.5 1443.0,729.5 1442.0,728.5 1393.0,728.5 Z M 929.0,729.5 928.0,730.5 896.0,731.5 895.0,732.5 886.0,732.5 885.0,733.5 878.0,733.5 877.0,734.5 871.0,734.5 870.0,735.5 859.0,736.5 858.0,737.5 855.0,737.5 845.0,741.5 841.5,745.0 841.5,747.0 845.0,750.5 849.0,752.5 851.0,752.5 858.0,755.5 868.0,756.5 869.0,757.5 884.0,758.5 885.0,759.5 893.0,759.5 894.0,760.5 903.0,760.5 904.0,761.5 918.0,761.5 919.0,762.5 952.0,762.5 953.0,763.5 955.0,763.5 956.0,762.5 999.0,762.5 1000.0,761.5 1013.0,761.5 1014.0,760.5 1024.0,760.5 1025.0,759.5 1033.0,759.5 1034.0,758.5 1049.0,757.5 1050.0,756.5 1060.0,755.5 1061.0,754.5 1069.0,752.5 1075.0,749.5 1076.5,748.0 1076.5,745.0 1073.0,741.5 1063.0,737.5 1054.0,736.5 1053.0,735.5 1048.0,735.5 1047.0,734.5 1041.0,734.5 1040.0,733.5 1033.0,733.5 1032.0,732.5 1010.0,731.5 1009.0,730.5 991.0,730.5 990.0,729.5 930.0,729.5 Z M 328.0,731.5 326.5,733.0 327.0,1026.5 435.5,1026.0 435.5,895.0 437.0,892.5 445.5,904.0 454.5,914.0 457.5,919.0 462.5,924.0 465.5,929.0 470.5,934.0 472.5,938.0 482.5,949.0 485.5,954.0 490.5,959.0 493.5,964.0 498.5,969.0 501.5,974.0 510.5,984.0 513.5,989.0 537.0,1017.5 538.5,1017.0 545.5,1007.0 551.5,1001.0 553.5,997.0 558.5,992.0 561.5,987.0 570.5,977.0 573.5,972.0 578.5,967.0 581.5,962.0 586.5,957.0 593.5,947.0 598.5,942.0 601.5,937.0 606.5,932.0 609.5,927.0 638.0,892.5 638.5,1026.0 747.5,1026.0 747.0,731.5 639.0,731.5 633.5,739.0 628.5,744.0 621.5,754.0 616.5,759.0 609.5,769.0 604.5,774.0 601.5,779.0 596.5,784.0 593.5,789.0 584.5,799.0 573.5,814.0 568.5,819.0 565.5,824.0 556.5,834.0 545.5,849.0 537.0,858.5 531.5,851.0 526.5,846.0 523.5,841.0 513.5,830.0 511.5,826.0 506.5,821.0 491.5,801.0 485.5,795.0 483.5,791.0 465.5,770.0 463.5,766.0 458.5,761.0 443.5,741.0 435.0,731.5 329.0,731.5 Z M 1676.0,743.5 1675.0,744.5 1668.0,745.5 1658.0,750.5 1655.0,752.5 1643.5,765.0 1637.5,779.0 1637.5,783.0 1636.5,784.0 1636.5,798.0 1637.5,799.0 1638.5,806.0 1643.5,816.0 1655.0,828.5 1659.0,831.5 1661.0,831.5 1668.0,835.5 1670.0,835.5 1674.0,837.5 1681.0,837.5 1682.0,838.5 1685.0,838.5 1686.0,837.5 1693.0,837.5 1694.0,836.5 1697.0,836.5 1704.0,832.5 1706.0,832.5 1711.0,829.5 1721.5,819.0 1729.5,803.0 1729.5,799.0 1730.5,798.0 1730.5,783.0 1729.5,782.0 1729.5,779.0 1728.5,778.0 1727.5,773.0 1723.5,765.0 1712.0,752.5 1704.0,748.5 1702.0,746.5 1700.0,746.5 1696.0,744.5 1693.0,744.5 1692.0,743.5 1677.0,743.5 Z M 1678.0,753.5 1665.0,758.5 1655.5,767.0 1650.5,775.0 1650.5,777.0 1648.5,781.0 1648.5,786.0 1647.5,787.0 1647.5,793.0 1648.5,794.0 1649.5,804.0 1655.5,814.0 1665.0,822.5 1671.0,825.5 1677.0,826.5 1678.0,827.5 1689.0,827.5 1690.0,826.5 1693.0,826.5 1702.0,822.5 1706.0,819.5 1711.5,814.0 1717.5,804.0 1717.5,801.0 1718.5,800.0 1718.5,793.0 1719.5,792.0 1719.5,790.0 1718.5,789.0 1718.5,781.0 1717.5,780.0 1716.5,775.0 1712.5,770.0 1711.5,767.0 1707.0,762.5 1706.0,762.5 1702.0,758.5 1692.0,754.5 1689.0,754.5 1688.0,753.5 1679.0,753.5 Z M 1661.0,764.5 1661.0,814.5 1675.5,814.0 1675.5,799.0 1677.0,797.5 1683.0,797.5 1688.5,800.0 1690.5,805.0 1691.0,814.5 1707.5,814.0 1706.5,812.0 1706.5,804.0 1705.5,803.0 1705.5,799.0 1699.5,792.0 1703.5,789.0 1706.5,784.0 1706.5,775.0 1704.5,771.0 1699.0,766.5 1694.0,765.5 1693.0,764.5 1662.0,764.5 Z M 1677.0,776.5 1675.5,778.0 1675.5,785.0 1677.0,786.5 1687.0,786.5 1690.5,784.0 1690.5,779.0 1689.0,777.5 1687.0,776.5 1678.0,776.5 Z M 1104.0,819.5 1102.5,821.0 1102.5,905.0 1104.0,906.5 1142.0,906.5 1143.0,905.5 1146.0,905.5 1152.0,902.5 1154.0,902.5 1163.0,896.5 1169.5,890.0 1174.5,882.0 1174.5,880.0 1176.5,877.0 1176.5,875.0 1178.5,871.0 1178.5,856.0 1177.5,855.0 1177.5,852.0 1174.5,846.0 1174.5,844.0 1168.5,835.0 1159.0,826.5 1151.0,822.5 1149.0,822.5 1145.0,820.5 1141.0,820.5 1140.0,819.5 1105.0,819.5 Z M 330.0,1043.5 328.5,1045.0 328.5,1239.0 330.0,1240.5 400.0,1240.5 401.5,1239.0 402.0,1195.5 449.0,1195.5 450.0,1194.5 468.0,1194.5 469.0,1193.5 474.0,1193.5 475.0,1192.5 480.0,1192.5 481.0,1191.5 489.0,1190.5 492.0,1188.5 502.0,1185.5 517.0,1176.5 530.5,1162.0 533.5,1157.0 533.5,1155.0 537.5,1149.0 538.5,1143.0 539.5,1142.0 539.5,1138.0 540.5,1137.0 540.5,1131.0 541.5,1130.0 541.5,1109.0 540.5,1108.0 540.5,1102.0 539.5,1101.0 539.5,1097.0 538.5,1096.0 537.5,1090.0 532.5,1080.0 526.5,1072.0 518.0,1063.5 514.0,1061.5 511.0,1058.5 495.0,1050.5 485.0,1048.5 484.0,1047.5 481.0,1047.5 480.0,1046.5 476.0,1046.5 475.0,1045.5 460.0,1044.5 459.0,1043.5 331.0,1043.5 Z M 561.0,1043.5 559.5,1045.0 559.5,1239.0 561.0,1240.5 631.0,1240.5 632.5,1239.0 633.0,1195.5 678.0,1195.5 681.5,1199.0 684.5,1205.0 687.5,1208.0 690.5,1214.0 695.5,1220.0 696.5,1223.0 709.0,1240.5 783.0,1240.5 783.5,1239.0 778.5,1233.0 777.5,1230.0 772.5,1224.0 769.5,1218.0 766.5,1215.0 763.5,1209.0 756.5,1200.0 755.5,1197.0 751.5,1193.0 746.5,1184.0 755.0,1179.5 759.0,1175.5 760.0,1175.5 770.5,1165.0 772.5,1161.0 775.5,1158.0 782.5,1139.0 782.5,1135.0 783.5,1134.0 783.5,1122.0 784.5,1121.0 784.5,1118.0 783.5,1117.0 783.5,1105.0 782.5,1104.0 782.5,1100.0 781.5,1099.0 778.5,1088.0 776.5,1085.0 776.5,1083.0 771.5,1077.0 770.5,1074.0 756.0,1060.5 750.0,1057.5 748.0,1055.5 746.0,1055.5 737.0,1050.5 727.0,1048.5 726.0,1047.5 723.0,1047.5 722.0,1046.5 718.0,1046.5 717.0,1045.5 712.0,1045.5 711.0,1044.5 701.0,1044.5 700.0,1043.5 562.0,1043.5 Z M 804.0,1043.5 804.0,1240.5 874.0,1240.5 875.5,1239.0 875.5,1045.0 874.0,1043.5 805.0,1043.5 Z M 901.0,1043.5 899.5,1045.0 899.5,1239.0 901.0,1240.5 971.0,1240.5 972.5,1239.0 973.0,1135.5 981.5,1145.0 983.5,1149.0 988.5,1154.0 995.5,1164.0 1000.5,1169.0 1000.5,1170.0 1008.5,1179.0 1010.5,1183.0 1016.5,1189.0 1023.5,1199.0 1028.5,1204.0 1031.5,1209.0 1036.5,1214.0 1039.5,1219.0 1048.5,1229.0 1056.0,1239.5 1058.0,1240.5 1140.5,1240.0 1140.0,1043.5 1068.5,1044.0 1068.0,1148.5 1064.5,1146.0 1062.5,1142.0 1056.5,1136.0 1054.5,1132.0 1049.5,1127.0 1042.5,1117.0 1037.5,1112.0 1034.5,1107.0 1017.5,1087.0 1015.5,1083.0 1009.5,1077.0 1007.5,1073.0 997.5,1062.0 995.5,1058.0 983.0,1043.5 902.0,1043.5 Z M 1154.0,1043.5 1152.5,1045.0 1152.5,1104.0 1154.0,1105.5 1226.5,1106.0 1227.0,1240.5 1297.0,1240.5 1298.5,1239.0 1298.5,1106.0 1370.0,1105.5 1371.5,1104.0 1371.5,1045.0 1370.0,1043.5 1155.0,1043.5 Z M 1386.0,1043.5 1385.5,1104.0 1387.0,1105.5 1490.5,1106.0 1487.0,1109.5 1481.0,1112.5 1478.0,1115.5 1449.0,1134.5 1443.0,1139.5 1440.0,1140.5 1437.0,1143.5 1408.0,1162.5 1395.0,1172.5 1389.0,1175.5 1385.5,1179.0 1386.0,1240.5 1603.5,1240.0 1603.5,1180.0 1602.0,1178.5 1498.5,1178.0 1502.0,1174.5 1512.0,1168.5 1515.0,1165.5 1518.0,1164.5 1534.0,1152.5 1540.0,1149.5 1553.0,1139.5 1559.0,1136.5 1575.0,1124.5 1578.0,1123.5 1581.0,1120.5 1587.0,1117.5 1594.0,1111.5 1600.0,1108.5 1603.5,1105.0 1603.0,1043.5 1387.0,1043.5 Z M 402.0,1105.5 402.0,1133.5 458.0,1133.5 463.0,1131.5 467.5,1127.0 469.5,1123.0 469.5,1116.0 467.5,1112.0 464.0,1108.5 458.0,1105.5 403.0,1105.5 Z M 633.0,1105.5 633.0,1133.5 700.0,1133.5 707.0,1130.5 710.5,1126.0 710.5,1123.0 711.5,1122.0 711.5,1117.0 709.5,1112.0 706.0,1108.5 700.0,1105.5 634.0,1105.5 Z"/>
</svg>